HIERARCHY
ROOT Hips
{
	OFFSET -0.179506 -22.333345 2.821913
	CHANNELS 6 Xposition Yposition Zposition Zrotation Yrotation Xrotation 
	JOINT LeftUpLeg
	{
		OFFSET 6.951974 -9.140623 -0.681533
		CHANNELS 3 Zrotation Yrotation Xrotation
		JOINT LeftLeg
		{
			OFFSET 3.427654 -37.519855 -0.449580
			CHANNELS 3 Zrotation Yrotation Xrotation
			JOINT LeftFoot
			{
				OFFSET -1.359570 -39.796059 -4.369333
				CHANNELS 3 Zrotation Yrotation Xrotation
				JOINT LeftToe
				{
					OFFSET 2.635814 -5.579078 11.928840
					CHANNELS 3 Zrotation Yrotation Xrotation
					End Site
					{
						OFFSET 0.000000 0.000000 0.000000
					}
				}
			}
		}
	}
	JOINT RightUpLeg
	{
		OFFSET -6.767048 -9.052170 -0.431982
		CHANNELS 3 Zrotation Yrotation Xrotation
		JOINT RightLeg
		{
			OFFSET -3.829005 -38.256897 -0.885003
			CHANNELS 3 Zrotation Yrotation Xrotation
			JOINT RightFoot
			{
				OFFSET 1.577377 -39.841461 -4.231180
				CHANNELS 3 Zrotation Yrotation Xrotation
				JOINT RightToe
				{
					OFFSET -2.537174 -4.814398 12.334795
					CHANNELS 3 Zrotation Yrotation Xrotation
					End Site
					{
						OFFSET 0.000000 0.000000 0.000000
					}
				}
			}
		}
	}
	JOINT Spine
	{
		OFFSET -0.253288 10.896323 -2.669631
		CHANNELS 3 Zrotation Yrotation Xrotation
		JOINT Spine1
		{
			OFFSET 0.548704 13.518043 0.109247
			CHANNELS 3 Zrotation Yrotation Xrotation
			JOINT Spine2
			{
				OFFSET 0.145701 5.292222 2.542457
				CHANNELS 3 Zrotation Yrotation Xrotation
				JOINT Neck
				{
					OFFSET -0.277840 21.387037 -4.285703
					CHANNELS 3 Zrotation Yrotation Xrotation
					JOINT Head
					{
						OFFSET 0.515184 6.496960 5.134897
						CHANNELS 3 Zrotation Yrotation Xrotation
						End Site
						{
							OFFSET 0.000000 0.000000 0.000000
						}
					}
				}
				JOINT LeftShoulder
				{
					OFFSET 7.884473 12.174932 -3.408961
					CHANNELS 3 Zrotation Yrotation Xrotation
					JOINT LeftArm
					{
						OFFSET 9.097692 3.046888 -0.886815
						CHANNELS 3 Zrotation Yrotation Xrotation
						JOINT LeftForeArm
						{
							OFFSET 25.961220 -1.277207 -2.745643
							CHANNELS 3 Zrotation Yrotation Xrotation
							JOINT LeftHand
							{
								OFFSET 24.923361 0.898606 -0.117091
								CHANNELS 3 Zrotation Yrotation Xrotation
								End Site
								{
									OFFSET 0.000000 0.000000 0.000000
								}
							}
						}
					}
				}
				JOINT RightShoulder
				{
					OFFSET -8.175920 11.883285 -3.861528
					CHANNELS 3 Zrotation Yrotation Xrotation
					JOINT RightArm
					{
						OFFSET -9.601238 3.255117 -0.914307
						CHANNELS 3 Zrotation Yrotation Xrotation
						JOINT RightForeArm
						{
							OFFSET -25.374195 -1.332924 -2.140099
							CHANNELS 3 Zrotation Yrotation Xrotation
							JOINT RightHand
							{
								OFFSET -25.529810 0.777228 -0.555919
								CHANNELS 3 Zrotation Yrotation Xrotation
								End Site
								{
									OFFSET 0.000000 0.000000 0.000000
								}
							}
						}
					}
				}
			}
		}
	}
}
MOTION
Frames: 12
Frame Time: 0.033333
-31.457912 159.894760 91.474709 172.439420 -2.630573 91.852602 9.453112 2.637876 12.716767 -2.476514 -1.095566 11.920349 -0.164586 9.296823 -17.187647 nan nan nan -9.153619 3.953647 -32.399651 2.685823 -5.425982 35.134923 -1.530865 -0.014752 -18.544819 nan nan nan -3.815121 -11.030300 5.098973 5.484176 -8.885482 4.083775 0.612389 -6.158334 -6.013471 -1.342629 4.506954 0.633074 -1.385676 4.418246 19.730521 -11.367370 -12.093270 -3.069962 -72.813311 -39.393839 28.546288 136.230448 -45.717113 -111.256114 2.282978 -24.244446 -26.581685 10.160084 6.444596 -6.664113 60.992808 18.697030 22.214506 -164.924667 54.554869 -146.990814 3.823585 19.270751 -29.458759 
-31.450998 159.612885 91.421867 174.039180 -2.686258 92.013979 10.024883 2.991893 12.531106 -2.540009 -0.853713 10.926045 -0.403463 9.522964 -17.424121 nan nan nan -9.469843 3.278150 -32.484608 2.665138 -5.955513 35.198434 -1.372574 -0.286943 -18.802439 nan nan nan -3.804180 -10.893758 5.123357 5.463747 -8.807465 3.762682 0.601095 -6.179740 -5.727536 -1.574330 4.142424 0.804254 -1.292376 4.337871 19.717360 -11.511132 -12.290728 -2.996082 -72.890663 -39.162561 28.672006 136.395389 -46.335800 -111.210439 1.891994 -23.878888 -26.894400 10.162325 6.684658 -6.798728 60.692637 19.205510 21.684267 -164.446872 54.506211 -146.722251 3.977159 19.140889 -29.335720 
-31.531403 159.324921 91.354080 175.812407 -2.797472 92.139037 10.457588 3.294159 12.229317 -2.484808 -0.397969 10.144585 -0.421040 9.686864 -17.692610 nan nan nan -9.963160 2.407401 -32.492571 2.709754 -6.579137 35.215495 -1.230711 -0.416524 -19.003393 nan nan nan -3.648748 -10.958644 5.165552 5.397164 -8.900969 3.491057 0.427167 -6.074328 -5.517395 -1.770204 3.869007 0.918011 -1.228013 4.122440 19.770711 -11.387892 -12.287927 -3.188825 -72.512544 -38.944250 28.637979 136.054246 -46.909868 -110.543393 1.153586 -24.017369 -27.859606 10.019902 7.006659 -6.935402 60.668837 19.655512 21.469124 -163.507946 54.438612 -145.825788 4.114167 19.185572 -29.111634 
-31.552961 159.010269 91.306061 177.424606 -2.878963 92.233079 10.979404 3.796101 11.908361 -2.428252 0.328842 9.650434 -0.403126 9.829799 -17.825287 nan nan nan -10.317680 1.733620 -32.481898 2.526500 -7.213182 35.254672 -1.069723 -0.526176 -19.198664 nan nan nan -3.671740 -10.931510 5.279512 5.369956 -8.906872 3.385465 0.407704 -5.995317 -5.439676 -1.761759 3.705864 1.001621 -1.346287 3.740414 19.925920 -11.547132 -12.315336 -3.104924 -72.976822 -38.885590 29.157840 136.181907 -47.771430 -110.739707 1.657681 -23.936679 -27.246564 9.986602 7.302749 -6.976413 60.503984 20.256784 21.265781 -162.851654 54.340973 -145.092472 3.454477 18.987520 -28.640137 
-31.560169 158.689011 91.257797 178.962615 -3.035646 92.239800 11.482179 4.407777 11.638747 -2.386415 1.167722 9.381197 -0.377758 9.947234 -17.887932 nan nan nan -10.748968 1.038849 -32.437471 2.366255 -7.816285 35.388740 -0.991802 -0.652771 -19.404897 nan nan nan -3.866838 -10.801293 5.486859 5.353533 -8.912514 3.389694 0.436168 -5.968349 -5.435798 -1.666143 3.489949 1.036013 -1.489851 3.400021 20.076053 -11.537444 -11.979900 -3.083798 -73.613176 -38.885887 29.663578 136.465165 -48.332646 -110.777016 0.668043 -23.420705 -26.443573 10.076591 7.432918 -6.911321 60.236057 21.113017 21.188286 -162.046448 54.207955 -144.535313 3.428938 18.619961 -28.324702 
-31.583517 158.382782 91.210014 -179.491369 -3.201469 92.264793 11.975894 5.044937 11.272442 -2.331574 2.083159 9.363537 -0.526688 9.968604 -17.905411 nan nan nan -11.248953 0.204322 -32.378693 2.322024 -8.460361 35.478920 -0.827991 -0.636798 -19.536464 nan nan nan -3.967474 -10.700174 5.539155 5.238591 -8.913453 3.368172 0.335124 -5.826291 -5.295585 -1.439857 3.123710 1.103262 -1.595161 3.038660 20.254051 -11.489585 -11.857816 -2.913368 -74.040833 -39.014579 30.135125 136.462039 -49.253369 -111.004526 0.930695 -23.435118 -26.434447 10.319178 7.502718 -6.859837 59.820972 21.918733 20.754236 -161.530619 54.163678 -144.489068 3.180708 18.439926 -27.833972 
-31.616056 158.089096 91.180557 -177.970391 -3.277545 92.274467 12.512407 5.596476 10.912504 -2.234557 2.998448 9.512249 -0.655407 10.022319 -17.754057 nan nan nan -11.657379 -0.560656 -32.225499 2.259991 -9.108674 35.421113 -0.667704 -0.657440 -19.564964 nan nan nan -3.919439 -10.592127 5.556633 5.105949 -8.889673 3.463936 0.221387 -5.661391 -5.223621 -1.275479 2.822071 1.244240 -1.634857 2.710461 20.246499 -11.440748 -12.202018 -2.684827 -74.030398 -38.971973 30.220198 136.544560 -49.879906 -110.923392 1.229800 -23.419354 -26.584780 10.443660 7.813368 -6.836126 59.551341 22.522083 20.199827 -161.049815 53.991081 -144.030686 2.738521 18.307497 -27.116733 
-31.647497 157.779404 91.167473 -176.535993 -3.320410 92.267868 13.028947 6.127673 10.537102 -2.082800 4.010496 9.835225 -0.641079 10.120293 -17.419983 nan nan nan -11.987505 -1.227590 -32.054689 2.165101 -9.696800 35.342600 -0.520847 -0.750143 -19.518049 nan nan nan -3.800835 -10.476096 5.653312 4.958998 -8.855148 3.544678 0.125905 -5.501291 -5.236270 -1.159733 2.575693 1.401443 -1.733344 2.368602 20.198915 -11.388999 -12.620557 -2.558916 -73.881677 -38.809956 30.215273 136.744654 -50.225557 -110.882001 0.973370 -23.051479 -26.143152 10.517648 8.225721 -6.793434 59.333005 23.032440 19.782431 -160.397939 53.711091 -143.302018 2.653625 17.993300 -26.372976 
-31.709888 157.458160 91.161308 -175.201660 -3.348964 92.191649 13.509518 6.662101 10.250739 -1.888579 5.068216 10.233050 -0.565851 10.119444 -16.988219 nan nan nan -12.316463 -1.830155 -31.791126 2.099314 -10.241578 35.207591 -0.386212 -0.748332 -19.424525 nan nan nan -3.607286 -10.389964 5.897121 4.764440 -8.767141 3.424343 -0.033432 -5.297838 -5.147627 -0.998015 2.405657 1.572531 -1.873229 1.954079 20.208075 -11.270832 -12.822882 -2.577318 -74.005221 -38.501464 30.445380 136.960672 -50.614041 -110.685439 1.431026 -22.982897 -26.204200 10.535075 8.590256 -6.756132 59.166927 23.525697 19.521650 -159.718826 53.425701 -142.523946 2.424406 17.689879 -26.052474 
-31.812092 157.095108 91.155815 -174.038547 -3.358152 92.049667 13.961156 7.220755 10.063712 -1.684584 6.194906 10.681806 -0.398914 10.141807 -16.518971 nan nan nan -12.629998 -2.370993 -31.523468 2.000874 -10.817742 35.148227 -0.234101 -0.512010 -19.493734 nan nan nan -3.530064 -10.035923 5.959076 4.582676 -8.513963 3.579776 -0.087019 -5.187528 -4.953527 -0.775435 2.167274 1.943827 -1.946949 1.332319 19.989660 -11.381416 -13.348168 -2.491288 -73.962283 -38.173358 30.534800 137.087609 -51.099642 -110.537304 3.333658 -23.690540 -26.700846 10.551828 9.148834 -6.841051 58.425505 23.812553 18.744987 -159.008762 53.211581 -141.785305 1.758226 17.616896 -25.407647 
-31.890251 156.755707 91.158249 -172.899344 -3.404258 91.992619 14.390493 7.790918 9.762076 -1.464062 7.144675 11.298760 -0.259621 10.027354 -15.970341 nan nan nan -12.837682 -2.911780 -31.353999 1.748331 -11.219653 35.073202 -0.007328 -0.435662 -19.669750 nan nan nan -3.462980 -9.924777 6.416080 4.459670 -8.320984 3.072510 -0.155263 -4.948343 -4.828395 -0.657328 2.095232 2.236577 -1.951068 0.758278 20.030937 -11.349552 -13.079241 -2.526780 -74.152651 -38.199572 30.788578 136.822573 -51.808796 -110.421190 2.148543 -23.910480 -26.134715 10.562489 9.362436 -6.479661 58.042557 24.550100 18.248884 -158.147339 52.987618 -141.085517 1.962070 17.545517 -24.723638 
-31.934666 156.413757 91.164589 -171.637137 -3.457709 91.980360 14.810076 8.215406 9.296677 -1.248042 7.714592 12.094772 -0.046213 9.911453 -15.281709 nan nan nan -13.007733 -3.533841 -31.191354 1.469893 -11.577687 34.938240 0.037269 -0.581174 -19.828608 nan nan nan -3.369825 -9.871896 6.815814 4.413412 -8.245948 2.742987 -0.216788 -4.855165 -4.895067 -0.769898 2.014295 2.273695 -2.015417 0.406456 20.315028 -11.400921 -12.572856 -2.509216 -74.719784 -38.131934 31.166700 137.213957 -52.416868 -110.813170 1.309164 -23.124189 -25.055707 10.549387 9.592510 -5.959627 57.796388 25.531574 17.997747 -157.334947 52.743161 -140.389095 1.925624 17.112228 -23.925677 
